<?xml version="1.0" encoding="UTF-8" standalone="no" ?>
<!DOCTYPE svg PUBLIC "-//W3C//DTD SVG 1.1//EN" "http://www.w3.org/Graphics/SVG/1.1/DTD/svg11.dtd">
<svg xmlns="http://www.w3.org/2000/svg" xmlns:xlink="http://www.w3.org/1999/xlink" version="1.1" width="1280" height="800" viewBox="0 0 1280 800" xml:space="preserve">
<desc>Created with Fabric.js 4.6.0</desc>
<defs>
</defs>
<g transform="matrix(1 0 0 1 640 400)" id="iCeJv48NuB3N2_EbVm36j"  >
<path style="stroke: rgb(209,216,96); stroke-width: 0; stroke-dasharray: none; stroke-linecap: butt; stroke-dashoffset: 0; stroke-linejoin: miter; stroke-miterlimit: 4; fill: rgb(255,255,255); fill-rule: nonzero; opacity: 1;" vector-effect="non-scaling-stroke"  transform=" translate(-640, -400)" d="M 0 0 L 1280 0 L 1280 800 L 0 800 z" stroke-linecap="round" />
</g>
<g transform="matrix(1 0 0 1 427.32 528.93)" id="e3apyPLdTSH3WDI0D655Q"  >
<path style="stroke: rgb(0,0,0); stroke-width: 2; stroke-dasharray: none; stroke-linecap: butt; stroke-dashoffset: 0; stroke-linejoin: miter; stroke-miterlimit: 4; fill: rgb(255,255,255); fill-rule: nonzero; opacity: 1;" vector-effect="non-scaling-stroke"  transform=" translate(0, 0)" d="M 161.10492 111.07031 L 279.51958 111.07031 L 361.06338000000005 91.67906 L 361.06338000000005 -26.957859999999997 L 250.20423000000005 -111.07032 L -24.06374999999997 -111.07032 L -177.87774999999996 -26.957859999999997 L -361.06336999999996 7.753410000000002 L -361.06336999999996 99.70145000000001 L -268.529 111.07031 z" stroke-linecap="round" />
</g>
<g transform="matrix(1.14 0 0 1.14 218.2 620.52)" id="GYu08VbdQS6rUvCvJWsWP"  >
<path style="stroke: rgb(214,201,67); stroke-width: 0; stroke-dasharray: none; stroke-linecap: butt; stroke-dashoffset: 0; stroke-linejoin: miter; stroke-miterlimit: 4; fill: rgb(0,0,0); fill-rule: nonzero; opacity: 1;" vector-effect="non-scaling-stroke"  transform=" translate(0, 0)" d="M 0 -52.11267 C 28.7662 -52.11267 52.11267 -28.76619 52.11267 0 C 52.11267 28.7662 28.76619 52.11267 0 52.11267 C -28.7662 52.11267 -52.11267 28.76619 -52.11267 0 C -52.11267 -28.7662 -28.76619 -52.11267 0 -52.11267 z" stroke-linecap="round" />
</g>
<g transform="matrix(0.93 0 0 0.93 218.2 620.52)" id="0R9_lRmrZGOVfqKC1Ijca"  >
<path style="stroke: rgb(247,47,58); stroke-width: 0; stroke-dasharray: none; stroke-linecap: butt; stroke-dashoffset: 0; stroke-linejoin: miter; stroke-miterlimit: 4; fill: rgb(255,255,255); fill-rule: nonzero; opacity: 1;" vector-effect="non-scaling-stroke"  transform=" translate(0, 0)" d="M 0 -49.29577 C 27.21127 -49.29577 49.29577 -27.211259999999996 49.29577 0 C 49.29577 27.21127 27.211259999999996 49.29577 0 49.29577 C -27.21127 49.29577 -49.29577 27.211259999999996 -49.29577 0 C -49.29577 -27.21127 -27.211259999999996 -49.29577 0 -49.29577 z" stroke-linecap="round" />
</g>
<g transform="matrix(1.14 0 0 1.14 647.64 620.32)" id="gKkZd21dOgulAiPqaOjOh"  >
<path style="stroke: rgb(214,201,67); stroke-width: 0; stroke-dasharray: none; stroke-linecap: butt; stroke-dashoffset: 0; stroke-linejoin: miter; stroke-miterlimit: 4; fill: rgb(0,0,0); fill-rule: nonzero; opacity: 1;" vector-effect="non-scaling-stroke"  transform=" translate(0, 0)" d="M 0 -52.11267 C 28.7662 -52.11267 52.11267 -28.76619 52.11267 0 C 52.11267 28.7662 28.76619 52.11267 0 52.11267 C -28.7662 52.11267 -52.11267 28.76619 -52.11267 0 C -52.11267 -28.7662 -28.76619 -52.11267 0 -52.11267 z" stroke-linecap="round" />
</g>
<g transform="matrix(1 0 0 1 392.82 468.17)" id="5pz-ETXHZtMkcXv26pUt0"  >
<path style="stroke: rgb(0,0,0); stroke-width: 2; stroke-dasharray: none; stroke-linecap: butt; stroke-dashoffset: 0; stroke-linejoin: miter; stroke-miterlimit: 4; fill: rgb(255,255,255); fill-opacity: 0; fill-rule: nonzero; opacity: 1;" vector-effect="non-scaling-stroke"  transform=" translate(0, 0)" d="M -80.98592 33.80282 L 26.023770000000013 -33.80281000000001 L 80.98591000000002 -33.80281000000001 L 68.30985000000001 26.760569999999994 z" stroke-linecap="round" />
</g>
<g transform="matrix(1 0 0 1 575.92 464.6)" id="ddhoW_9W9ypvsZyzGVT_W"  >
<path style="stroke: rgb(0,0,0); stroke-width: 2; stroke-dasharray: none; stroke-linecap: butt; stroke-dashoffset: 0; stroke-linejoin: miter; stroke-miterlimit: 4; fill: rgb(255,255,255); fill-opacity: 0; fill-rule: nonzero; opacity: 1;" vector-effect="non-scaling-stroke"  transform=" translate(0, 0)" d="M -79.57746 31.73592 L 50 26.10212 L 79.57746 -3.475339999999999 L 45.70951 -31.7359 L -73.94367 -30.7359 z" stroke-linecap="round" />
</g>
<g transform="matrix(1 0 0 1 714.52 459.17)" id="RwX8YYECbtDndFa3M80Fx"  >
<path style="stroke: rgb(0,0,0); stroke-width: 2; stroke-dasharray: none; stroke-linecap: butt; stroke-dashoffset: 0; stroke-linejoin: miter; stroke-miterlimit: 4; fill: rgb(255,255,255); fill-opacity: 0; fill-rule: nonzero; opacity: 1;" vector-effect="non-scaling-stroke"  transform=" translate(0, 0)" d="M 52.67443 26.30158 L 15.118459999999999 26.30158 L -52.67442 -26.301569999999998 L -16.92264 -26.301569999999998" stroke-linecap="round" />
</g>
<g transform="matrix(1 0 0 1 323.8 467.92)" id="G9_260FuvTmqWtUwz1vwY"  >
<path style="stroke: rgb(0,0,0); stroke-width: 2; stroke-dasharray: none; stroke-linecap: butt; stroke-dashoffset: 0; stroke-linejoin: miter; stroke-miterlimit: 4; fill: rgb(255,255,255); fill-opacity: 0; fill-rule: nonzero; opacity: 1;" vector-effect="non-scaling-stroke"  transform=" translate(0, 0)" d="M -71.41985 34.05282 L -28.363719999999994 34.05282 L 71.41984 -34.05281000000001 L 48.87648999999999 -34.05281000000001" stroke-linecap="round" />
</g>
<g transform="matrix(0.29 0 0 0.89 920.23 618.94)" id="qDnEArmhsoNArwpD652rQ"  >
<path style="stroke: rgb(177,45,234); stroke-width: 0; stroke-dasharray: none; stroke-linecap: butt; stroke-dashoffset: 0; stroke-linejoin: miter; stroke-miterlimit: 4; fill: rgb(0,0,0); fill-rule: nonzero; opacity: 1;" vector-effect="non-scaling-stroke"  transform=" translate(0, 0)" d="M -66.87565 -66.87565 L 66.87566 -66.87565 L 66.87566 57.76727000000001 L 66.87566 57.76727000000001 C 66.87566 62.79769000000001 54.456379999999996 66.87566000000001 39.13641 66.87566000000001 L -38.66226 66.87566000000001 L -38.66226 66.87566000000001 C -54.24409 66.87566000000001 -66.87565000000001 62.72799000000001 -66.87565000000001 57.61158000000001 z" stroke-linecap="round" />
</g>
<g transform="matrix(0.29 0 0 0.89 1175.24 619.63)" id="JADOpSiKLe2tbF7HQOwhO"  >
<path style="stroke: rgb(177,45,234); stroke-width: 0; stroke-dasharray: none; stroke-linecap: butt; stroke-dashoffset: 0; stroke-linejoin: miter; stroke-miterlimit: 4; fill: rgb(0,0,0); fill-rule: nonzero; opacity: 1;" vector-effect="non-scaling-stroke"  transform=" translate(0, 0)" d="M -66.87565 -66.87565 L 66.87566 -66.87565 L 66.87566 57.76727000000001 L 66.87566 57.76727000000001 C 66.87566 62.79769000000001 54.456379999999996 66.87566000000001 39.13641 66.87566000000001 L -38.66226 66.87566000000001 L -38.66226 66.87566000000001 C -54.24409 66.87566000000001 -66.87565000000001 62.72799000000001 -66.87565000000001 57.61158000000001 z" stroke-linecap="round" />
</g>
<g transform="matrix(0.93 0 0 0.93 647.64 620.61)" id="8lfZj1TzHZ68xkM72gn-p"  >
<path style="stroke: rgb(247,47,58); stroke-width: 0; stroke-dasharray: none; stroke-linecap: butt; stroke-dashoffset: 0; stroke-linejoin: miter; stroke-miterlimit: 4; fill: rgb(255,255,255); fill-rule: nonzero; opacity: 1;" vector-effect="non-scaling-stroke"  transform=" translate(0, 0)" d="M 0 -49.29577 C 27.21127 -49.29577 49.29577 -27.211259999999996 49.29577 0 C 49.29577 27.21127 27.211259999999996 49.29577 0 49.29577 C -27.21127 49.29577 -49.29577 27.211259999999996 -49.29577 0 C -49.29577 -27.21127 -27.211259999999996 -49.29577 0 -49.29577 z" stroke-linecap="round" />
</g>
<g transform="matrix(0.85 0 0 1 1047.96 528.68)" id="DkbwiN2P3m0zkFrR6qOzj"  >
<path style="stroke: rgb(0,0,0); stroke-width: 2; stroke-dasharray: none; stroke-linecap: butt; stroke-dashoffset: 0; stroke-linejoin: miter; stroke-miterlimit: 4; fill: rgb(255,255,255); fill-rule: nonzero; opacity: 1;" vector-effect="non-scaling-stroke"  transform=" translate(0, 0)" d="M -162.27237 111.82031 L -172.95421 0.25 L -113.68127999999999 -111.82031 L 114.40395000000001 -111.82031 L 172.95421000000002 0.25 L 163.09405 111.32031 z" stroke-linecap="round" />
</g>
<g transform="matrix(1 0 0 1 1048.26 463.57)" id="YJu8Rhv7djIe0D-PzGJfn"  >
<path style="stroke: rgb(0,0,0); stroke-width: 2; stroke-dasharray: none; stroke-linecap: butt; stroke-dashoffset: 0; stroke-linejoin: miter; stroke-miterlimit: 4; fill: rgb(255,255,255); fill-opacity: 0; fill-rule: nonzero; opacity: 1;" vector-effect="non-scaling-stroke"  transform=" translate(0, 0)" d="M -86.978 -23.81533 L 21.206520000000012 -23.81533 L 88.07160000000002 -23.81533 L 108.58744000000002 23.81533 L -108.58743999999999 23.81533 z" stroke-linecap="round" />
</g>
<g transform="matrix(-1 0 0 1 898.11 487.93)" id="LXOTWIV9dKi4BYTvha6Yf"  >
<path style="stroke: rgb(0,0,0); stroke-width: 2; stroke-dasharray: none; stroke-linecap: butt; stroke-dashoffset: 0; stroke-linejoin: miter; stroke-miterlimit: 4; fill: rgb(255,255,255); fill-rule: nonzero; opacity: 1;" vector-effect="non-scaling-stroke"  transform=" translate(0, 0)" d="M -15.40179 -13.315 L -15.40179 12.81499 L 15.40178 13.31499 L 15.40178 -13.315 z" stroke-linecap="round" />
</g>
<g transform="matrix(1.49 0 0 0.45 951.01 507.4)" id="2XCUGvUUdj7Zko3WlwZz9"  >
<path style="stroke: rgb(0,0,0); stroke-width: 2; stroke-dasharray: none; stroke-linecap: butt; stroke-dashoffset: 0; stroke-linejoin: miter; stroke-miterlimit: 4; fill: rgb(255,255,255); fill-rule: nonzero; opacity: 1;" vector-effect="non-scaling-stroke"  transform=" translate(0, 0)" d="M -22.32143 -22.32143 L 22.32143 -22.32143 L 22.32143 22.32143 L -22.32143 22.32143 z" stroke-linecap="round" />
</g>
<g transform="matrix(1.49 0 0 0.45 1144.58 507.88)" id="MVMOIprdL9e0Ft4XbkIdJ"  >
<path style="stroke: rgb(0,0,0); stroke-width: 2; stroke-dasharray: none; stroke-linecap: butt; stroke-dashoffset: 0; stroke-linejoin: miter; stroke-miterlimit: 4; fill: rgb(255,255,255); fill-rule: nonzero; opacity: 1;" vector-effect="non-scaling-stroke"  transform=" translate(0, 0)" d="M -22.32143 -22.32143 L 22.32143 -22.32143 L 22.32143 22.32143 L -22.32143 22.32143 z" stroke-linecap="round" />
</g>
<g transform="matrix(0.29 0 0 0.89 920.28 263.48)" id="6vR6mRcQY-ofAQLkZa1_l"  >
<path style="stroke: rgb(177,45,234); stroke-width: 0; stroke-dasharray: none; stroke-linecap: butt; stroke-dashoffset: 0; stroke-linejoin: miter; stroke-miterlimit: 4; fill: rgb(0,0,0); fill-rule: nonzero; opacity: 1;" vector-effect="non-scaling-stroke"  transform=" translate(0, 0)" d="M -66.87565 -66.87565 L 66.87566 -66.87565 L 66.87566 57.76727000000001 L 66.87566 57.76727000000001 C 66.87566 62.79769000000001 54.456379999999996 66.87566000000001 39.13641 66.87566000000001 L -38.66226 66.87566000000001 L -38.66226 66.87566000000001 C -54.24409 66.87566000000001 -66.87565000000001 62.72799000000001 -66.87565000000001 57.61158000000001 z" stroke-linecap="round" />
</g>
<g transform="matrix(0.29 0 0 0.89 1175.74 264.48)" id="IkJXidnyYXYKwuLYkVRN1"  >
<path style="stroke: rgb(177,45,234); stroke-width: 0; stroke-dasharray: none; stroke-linecap: butt; stroke-dashoffset: 0; stroke-linejoin: miter; stroke-miterlimit: 4; fill: rgb(0,0,0); fill-rule: nonzero; opacity: 1;" vector-effect="non-scaling-stroke"  transform=" translate(0, 0)" d="M -66.87565 -66.87565 L 66.87566 -66.87565 L 66.87566 57.76727000000001 L 66.87566 57.76727000000001 C 66.87566 62.79769000000001 54.456379999999996 66.87566000000001 39.13641 66.87566000000001 L -38.66226 66.87566000000001 L -38.66226 66.87566000000001 C -54.24409 66.87566000000001 -66.87565000000001 62.72799000000001 -66.87565000000001 57.61158000000001 z" stroke-linecap="round" />
</g>
<g transform="matrix(1.06 0 0 0.53 1047.35 538.53)" id="VUdLAfPYgEsygVNynfoIz"  >
<path style="stroke: rgb(0,0,0); stroke-width: 2; stroke-dasharray: none; stroke-linecap: butt; stroke-dashoffset: 0; stroke-linejoin: miter; stroke-miterlimit: 4; fill: rgb(255,255,255); fill-rule: nonzero; opacity: 1;" vector-effect="non-scaling-stroke"  transform=" translate(0, 0)" d="M -22.32143 -22.32143 L 22.32143 -22.32143 L 22.32143 22.32143 L -22.32143 22.32143 z" stroke-linecap="round" />
</g>
<g transform="matrix(0.85 0 0 1 1047.96 170.42)" id="sS55OBMkvr3-J9LzdYZT6"  >
<path style="stroke: rgb(0,0,0); stroke-width: 2; stroke-dasharray: none; stroke-linecap: butt; stroke-dashoffset: 0; stroke-linejoin: miter; stroke-miterlimit: 4; fill: rgb(255,255,255); fill-rule: nonzero; opacity: 1;" vector-effect="non-scaling-stroke"  transform=" translate(0, 0)" d="M -162.27237 111.82031 L -172.95421 0.25 L -113.68127999999999 -111.82031 L 114.40395000000001 -111.82031 L 172.95421000000002 0.25 L 163.09405 111.32031 z" stroke-linecap="round" />
</g>
<g transform="matrix(1.49 0 0 0.45 1154 187.6)" id="naGmgU8EyroZ3AY2jklps"  >
<path style="stroke: rgb(0,0,0); stroke-width: 2; stroke-dasharray: none; stroke-linecap: butt; stroke-dashoffset: 0; stroke-linejoin: miter; stroke-miterlimit: 4; fill: rgb(255,255,255); fill-rule: nonzero; opacity: 1;" vector-effect="non-scaling-stroke"  transform=" translate(0, 0)" d="M -22.32143 -22.32143 L 22.32143 -22.32143 L 22.32143 22.32143 L -22.32143 22.32143 z" stroke-linecap="round" />
</g>
<g transform="matrix(1 0 0 1 1197.52 488.9)" id="-1Pv5aI9QA2ypcaKV2CT8"  >
<path style="stroke: rgb(0,0,0); stroke-width: 2; stroke-dasharray: none; stroke-linecap: butt; stroke-dashoffset: 0; stroke-linejoin: miter; stroke-miterlimit: 4; fill: rgb(255,255,255); fill-rule: nonzero; opacity: 1;" vector-effect="non-scaling-stroke"  transform=" translate(0, 0)" d="M -15.40179 -13.065 L -15.40179 13.06499 L 15.40178 13.06499 L 15.40178 -13.065 z" stroke-linecap="round" />
</g>
<g transform="matrix(1.33 0 0 0.45 748.76 507.38)" id="2rX156mmhUA0MCppU38BP"  >
<path style="stroke: rgb(0,0,0); stroke-width: 2; stroke-dasharray: none; stroke-linecap: butt; stroke-dashoffset: 0; stroke-linejoin: miter; stroke-miterlimit: 4; fill: rgb(255,255,255); fill-rule: nonzero; opacity: 1;" vector-effect="non-scaling-stroke"  transform=" translate(0, 0)" d="M -22.32143 -22.32143 L 22.32143 -22.32143 L 22.32143 22.32143 L -22.32143 22.32143 z" stroke-linecap="round" />
</g>
<g transform="matrix(2.25 0 0 0.79 1050.61 204.96)" id="T0-6cVEx4AbfFN8dpqVEU"  >
<path style="stroke: rgb(0,0,0); stroke-width: 2; stroke-dasharray: none; stroke-linecap: butt; stroke-dashoffset: 0; stroke-linejoin: miter; stroke-miterlimit: 4; fill: rgb(255,255,255); fill-rule: nonzero; opacity: 1;" vector-effect="non-scaling-stroke"  transform=" translate(0, 0)" d="M -34.72222 -34.72222 L 34.72222 -34.72222 L 34.72222 34.72222 L -34.72222 34.72222 z" stroke-linecap="round" />
</g>
<g transform="matrix(1.02 0 0 1 746.62 602.49)" id="7qeGoKSSAhRGLGksgVUMV"  >
<path style="stroke: rgb(0,0,0); stroke-width: 2; stroke-dasharray: none; stroke-linecap: butt; stroke-dashoffset: 0; stroke-linejoin: miter; stroke-miterlimit: 4; fill: rgb(255,255,255); fill-opacity: 0; fill-rule: nonzero; opacity: 1;" vector-effect="non-scaling-stroke"  transform=" translate(0, 0)" d="M 40.05547 -8.05107 L -40.05546 8.05106 L -40.05546 8.05106" stroke-linecap="round" />
</g>
<g transform="matrix(1 0 0 1 433.02 620.94)" id="Fs_kCsCtoPHaqYnrnfr5F"  >
<path style="stroke: rgb(0,0,0); stroke-width: 2; stroke-dasharray: none; stroke-linecap: butt; stroke-dashoffset: 0; stroke-linejoin: miter; stroke-miterlimit: 4; fill: rgb(255,255,255); fill-opacity: 0; fill-rule: nonzero; opacity: 1;" vector-effect="non-scaling-stroke"  transform=" translate(0, 0)" d="M 155.40852 0 L -155.40852 0" stroke-linecap="round" />
</g>
<g transform="matrix(1 0 0 1 1198.86 132.38)" id="OUsmaPn-2vFjmp-nWBC8F"  >
<path style="stroke: rgb(0,0,0); stroke-width: 2; stroke-dasharray: none; stroke-linecap: butt; stroke-dashoffset: 0; stroke-linejoin: miter; stroke-miterlimit: 4; fill: rgb(255,255,255); fill-rule: nonzero; opacity: 1;" vector-effect="non-scaling-stroke"  transform=" translate(0, 0)" d="M -15.40179 -13.065 L -15.40179 13.06499 L 15.40178 13.06499 L 15.40178 -13.065 z" stroke-linecap="round" />
</g>
<g transform="matrix(1 0 0 1 112.03 614.39)" id="H4Wq7H9CGQex2FtdDPtBI"  >
<path style="stroke: rgb(0,0,0); stroke-width: 2; stroke-dasharray: none; stroke-linecap: butt; stroke-dashoffset: 0; stroke-linejoin: miter; stroke-miterlimit: 4; fill: rgb(255,255,255); fill-opacity: 0; fill-rule: nonzero; opacity: 1;" vector-effect="non-scaling-stroke"  transform=" translate(0, 0)" d="M 46.76719 5.9276 C 46.76719 5.9276 -23.383589999999998 -3.7330299999999994 -46.767179999999996 -5.9276" stroke-linecap="round" />
</g>
<g transform="matrix(0.52 0 0 0.15 101.04 551.42)" id="2tECYB68Z9sC7j3r93CpV"  >
<path style="stroke: rgb(0,0,0); stroke-width: 2; stroke-dasharray: none; stroke-linecap: butt; stroke-dashoffset: 0; stroke-linejoin: miter; stroke-miterlimit: 4; fill: rgb(255,255,255); fill-rule: nonzero; opacity: 1;" vector-effect="non-scaling-stroke"  transform=" translate(0, 0)" d="M -66.87565 -66.87565 L 66.87566 -66.87565 L 66.87566 66.87566 L -66.87565 66.87566 z" stroke-linecap="round" />
</g>
<g transform="matrix(3.42 0 0 0.64 1049.26 617.72)" id="1XHQXiTl3Yr4sk_5cvywI"  >
<path style="stroke: rgb(0,0,0); stroke-width: 2; stroke-dasharray: none; stroke-linecap: butt; stroke-dashoffset: 0; stroke-linejoin: miter; stroke-miterlimit: 4; fill: rgb(255,255,255); fill-rule: nonzero; opacity: 1;" vector-effect="non-scaling-stroke"  transform=" translate(0, 0)" d="M -34.72222 -34.72222 L 34.72222 -34.72222 L 34.72222 34.72222 L -34.72222 34.72222 z" stroke-linecap="round" />
</g>
<g transform="matrix(1.12 0 0 0.56 1047.35 249.24)" id="FOM5GrwlnC9DQlvP5DGNF"  >
<path style="stroke: rgb(0,0,0); stroke-width: 2; stroke-dasharray: none; stroke-linecap: butt; stroke-dashoffset: 0; stroke-linejoin: miter; stroke-miterlimit: 4; fill: rgb(255,255,255); fill-rule: nonzero; opacity: 1;" vector-effect="non-scaling-stroke"  transform=" translate(0, 0)" d="M -22.32143 -22.32143 L 22.32143 -22.32143 L 22.32143 22.32143 L -22.32143 22.32143 z" stroke-linecap="round" />
</g>
<g transform="matrix(1.49 0 0 0.45 942.96 187.6)" id="EdlA_yOJdv4qyldWLaUfi"  >
<path style="stroke: rgb(0,0,0); stroke-width: 2; stroke-dasharray: none; stroke-linecap: butt; stroke-dashoffset: 0; stroke-linejoin: miter; stroke-miterlimit: 4; fill: rgb(255,255,255); fill-rule: nonzero; opacity: 1;" vector-effect="non-scaling-stroke"  transform=" translate(0, 0)" d="M -22.32143 -22.32143 L 22.32143 -22.32143 L 22.32143 22.32143 L -22.32143 22.32143 z" stroke-linecap="round" />
</g>
<g transform="matrix(-1 0 0 1 896.43 132.38)" id="wH7_vZLN41HlhFVwZIZCL"  >
<path style="stroke: rgb(0,0,0); stroke-width: 2; stroke-dasharray: none; stroke-linecap: butt; stroke-dashoffset: 0; stroke-linejoin: miter; stroke-miterlimit: 4; fill: rgb(255,255,255); fill-rule: nonzero; opacity: 1;" vector-effect="non-scaling-stroke"  transform=" translate(0, 0)" d="M -15.40179 -13.065 L -15.40179 13.06499 L 15.40178 13.06499 L 15.40178 -13.065 z" stroke-linecap="round" />
</g>
<g transform="matrix(1.01 0 0 1 427.32 202.28)" id="3oEQ6c4KcX1_JrXW3FyK0"  >
<path style="stroke: rgb(0,0,0); stroke-width: 2; stroke-dasharray: none; stroke-linecap: butt; stroke-dashoffset: 0; stroke-linejoin: miter; stroke-miterlimit: 4; fill: rgb(255,255,255); fill-rule: nonzero; opacity: 1;" vector-effect="non-scaling-stroke"  transform=" translate(0, 0)" d="M -311.36853 -144.67885 L 283.14910000000003 -144.67885 L 356.58593 -93.25840000000001 L 356.58593 85.54841999999998 L 283.14910000000003 144.67884999999998 L -311.36853 144.67884999999998 L -356.58592000000004 85.54842 L -356.58592000000004 -6.625490000000013 L -356.58592000000004 -93.25840000000001 z" stroke-linecap="round" />
</g>
<g transform="matrix(1 0 0 -1 400.98 316.43)" id="4yLgpqOHKdoz9i1d0xcFI"  >
<path style="stroke: rgb(0,0,0); stroke-width: 2; stroke-dasharray: none; stroke-linecap: butt; stroke-dashoffset: 0; stroke-linejoin: miter; stroke-miterlimit: 4; fill: rgb(255,255,255); fill-opacity: 0; fill-rule: nonzero; opacity: 1;" vector-effect="non-scaling-stroke"  transform=" translate(0, 0)" d="M -72.82752 -10.79477 L 61.9636 -10.79477 L 72.82751999999999 10.79476 L 26.348649999999992 10.79476 z" stroke-linecap="round" />
</g>
<g transform="matrix(1 0 0 1 400.98 87.47)" id="WCZBDVmXShyObCcW7Cq4G"  >
<path style="stroke: rgb(0,0,0); stroke-width: 2; stroke-dasharray: none; stroke-linecap: butt; stroke-dashoffset: 0; stroke-linejoin: miter; stroke-miterlimit: 4; fill: rgb(255,255,255); fill-opacity: 0; fill-rule: nonzero; opacity: 1;" vector-effect="non-scaling-stroke"  transform=" translate(0, 0)" d="M -72.82752 -10.79477 L 61.9636 -10.79477 L 72.82751999999999 10.79476 L 26.348649999999992 10.79476 z" stroke-linecap="round" />
</g>
<g transform="matrix(1 0 0 1 575.92 87.47)" id="qnQZNTzQs_Xjs2IHk1uUx"  >
<path style="stroke: rgb(0,0,0); stroke-width: 2; stroke-dasharray: none; stroke-linecap: butt; stroke-dashoffset: 0; stroke-linejoin: miter; stroke-miterlimit: 4; fill: rgb(255,255,255); fill-opacity: 0; fill-rule: nonzero; opacity: 1;" vector-effect="non-scaling-stroke"  transform=" translate(0, 0)" d="M -80.57746 -11.29477 L 44.32073 -10.79477 L 80.57747 11.29476 L -75.07482999999999 11.29476 z" stroke-linecap="round" />
</g>
<g transform="matrix(1 0 0 -1 575.93 316.43)" id="aX82bh3D6gUz4zd0w7qZN"  >
<path style="stroke: rgb(0,0,0); stroke-width: 2; stroke-dasharray: none; stroke-linecap: butt; stroke-dashoffset: 0; stroke-linejoin: miter; stroke-miterlimit: 4; fill: rgb(255,255,255); fill-opacity: 0; fill-rule: nonzero; opacity: 1;" vector-effect="non-scaling-stroke"  transform=" translate(0, 0)" d="M -80.57746 -11.29477 L 44.32073 -10.79477 L 80.57747 11.29476 L -75.07482999999999 11.29476 z" stroke-linecap="round" />
</g>
<g transform="matrix(1 0 0 1 329.5 200.79)" id="4iqO12BjWafEX0m8uXZxC"  >
<path style="stroke: rgb(0,0,0); stroke-width: 2; stroke-dasharray: none; stroke-linecap: butt; stroke-dashoffset: 0; stroke-linejoin: miter; stroke-miterlimit: 4; fill: rgb(255,255,255); fill-opacity: 0; fill-rule: nonzero; opacity: 1;" vector-effect="non-scaling-stroke"  transform=" translate(0, 0)" d="M 71.47966 -94.50867 L 55.68796999999999 -42.485549999999996 L 55.68796999999999 32.573910000000005 L 71.47966 97.97686999999999 L -29.43226 119.94218999999998 L -71.47967 52.31212999999998 L -71.47967 -53.011240000000015 L -29.43226 -119.94221000000002 z" stroke-linecap="round" />
</g>
<g transform="matrix(1 0 0 1 1048.26 347.46)" id="giuliiIEB-I4t5CVsMuo_"  >
<path style="stroke: rgb(0,0,0); stroke-width: 1; stroke-dasharray: none; stroke-linecap: butt; stroke-dashoffset: 0; stroke-linejoin: miter; stroke-miterlimit: 4; fill: rgb(255,255,255); fill-opacity: 0; fill-rule: nonzero; opacity: 1;" vector-effect="non-scaling-stroke"  transform=" translate(0, 0)" d="M -126.98138 0 L 126.98138 0" stroke-linecap="round" />
</g>
<g transform="matrix(1 0 0 1 733.43 202.09)" id="GZjMG7hgw1PfvJoIJmXwF"  >
<path style="stroke: rgb(0,0,0); stroke-width: 2; stroke-dasharray: none; stroke-linecap: butt; stroke-dashoffset: 0; stroke-linejoin: miter; stroke-miterlimit: 4; fill: rgb(255,255,255); fill-opacity: 0; fill-rule: nonzero; opacity: 1;" vector-effect="non-scaling-stroke"  transform=" translate(0, 0)" d="M -31.79191 -86.41618 L -6.35838 -106.06935999999999 L 31.791909999999998 -60.71973999999999 L 31.791909999999998 62.39174000000001 L -6.35838 106.06937000000002 L -31.79191 85.26012000000003 L -21.38729 37.28324000000003 L -18.9135 -35.54912999999997 z" stroke-linecap="round" />
</g>
<g transform="matrix(1.02 0 0 1 429.49 680.12)" id="u1A8p46OMDJX37QR-wXpE"  >
<path style="stroke: rgb(0,0,0); stroke-width: 2; stroke-dasharray: none; stroke-linecap: butt; stroke-dashoffset: 0; stroke-linejoin: miter; stroke-miterlimit: 4; fill: rgb(255,255,255); fill-opacity: 0; fill-rule: nonzero; opacity: 1;" vector-effect="non-scaling-stroke"  transform=" translate(0, 0)" d="M -362.30241 -0.59445 C -366.31495 2.08058 181.16765999999996 -0.59445 362.32435 -0.59445" stroke-linecap="round" />
</g>
<g transform="matrix(1 0 0 1 1047.81 679.03)" id="7JxQi6KME3zi0SfqQ4Phj"  >
<path style="stroke: rgb(0,0,0); stroke-width: 2; stroke-dasharray: none; stroke-linecap: butt; stroke-dashoffset: 0; stroke-linejoin: miter; stroke-miterlimit: 4; fill: rgb(255,255,255); fill-opacity: 0; fill-rule: nonzero; opacity: 1;" vector-effect="non-scaling-stroke"  transform=" translate(0, 0)" d="M -167.44625 -0.5 L 167.44625 0.5" stroke-linecap="round" />
</g>
<g transform="matrix(1 0 0 1 1047.35 324)" id="SXUs4BTY-I7PsJKpbkDk_"  >
<path style="stroke: rgb(0,0,0); stroke-width: 2; stroke-dasharray: none; stroke-linecap: butt; stroke-dashoffset: 0; stroke-linejoin: miter; stroke-miterlimit: 4; fill: rgb(255,255,255); fill-opacity: 0; fill-rule: nonzero; opacity: 1;" vector-effect="non-scaling-stroke"  transform=" translate(0, 0)" d="M -167.44625 -0.5 C -167.44625 -0.5 83.72312 0.25 167.44625 0.5" stroke-linecap="round" />
</g>
<g transform="matrix(0.59 0 0 1.01 360.69 51.32)" id="SCuyrVjCGwh_gYjJYafrd"  >
<path style="stroke: rgb(0,0,0); stroke-width: 2; stroke-dasharray: none; stroke-linecap: butt; stroke-dashoffset: 0; stroke-linejoin: miter; stroke-miterlimit: 4; fill: rgb(255,255,255); fill-rule: nonzero; opacity: 1;" vector-effect="non-scaling-stroke"  transform=" translate(0, 0)" d="M -14.04389 -14.04389 L 14.04389 -14.04389 L 14.04389 14.04389 L -14.04389 14.04389 z" stroke-linecap="round" />
</g>
<g transform="matrix(0.59 0 0 1.01 360.72 347.96)" id="86xEFaL6dqZRDkywplp3z"  >
<path style="stroke: rgb(0,0,0); stroke-width: 2; stroke-dasharray: none; stroke-linecap: butt; stroke-dashoffset: 0; stroke-linejoin: miter; stroke-miterlimit: 4; fill: rgb(255,255,255); fill-rule: nonzero; opacity: 1;" vector-effect="non-scaling-stroke"  transform=" translate(0, 0)" d="M -14.04389 -14.04389 L 14.04389 -14.04389 L 14.04389 14.04389 L -14.04389 14.04389 z" stroke-linecap="round" />
</g>
<g transform="matrix(1 0 0 1 65.76 693.16)" id="IZntPOrNfqPYDDz9_ayDK"  >
<path style="stroke: rgb(0,0,0); stroke-width: 1; stroke-dasharray: none; stroke-linecap: butt; stroke-dashoffset: 0; stroke-linejoin: miter; stroke-miterlimit: 4; fill: rgb(255,255,255); fill-opacity: 0; fill-rule: nonzero; opacity: 1;" vector-effect="non-scaling-stroke"  transform=" translate(0, 0)" d="M 0 -63.53187 L 0 63.53187" stroke-linecap="round" />
</g>
<g transform="matrix(0 0 0 1.07 788.89 689.01)" id="N7mU6u-_vB_zcZvEzZ_-F"  >
<path style="stroke: rgb(0,0,0); stroke-width: 1; stroke-dasharray: none; stroke-linecap: butt; stroke-dashoffset: 0; stroke-linejoin: miter; stroke-miterlimit: 4; fill: rgb(255,255,255); fill-opacity: 0; fill-rule: nonzero; opacity: 1;" vector-effect="non-scaling-stroke"  transform=" translate(0, 0)" d="M 0 -63.53187 L 0 63.53187" stroke-linecap="round" />
</g>
<g transform="matrix(1 0 0 1 427.13 742.25)" id="MAcdcD7JU9Kb2dEvJTabo"  >
<path style="stroke: rgb(0,0,0); stroke-width: 1; stroke-dasharray: none; stroke-linecap: butt; stroke-dashoffset: 0; stroke-linejoin: miter; stroke-miterlimit: 4; fill: rgb(255,255,255); fill-opacity: 0; fill-rule: nonzero; opacity: 1;" vector-effect="non-scaling-stroke"  transform=" translate(0, 0)" d="M -361.09695 0 L 361.09695 0" stroke-linecap="round" />
</g>
<g transform="matrix(0 0.07 0.14 0 71.84 742.25)" id="DHsLDhnWQLqwZAuWsZjgU"  >
<path style="stroke: none; stroke-width: 1; stroke-dasharray: none; stroke-linecap: butt; stroke-dashoffset: 0; stroke-linejoin: miter; stroke-miterlimit: 4; fill: rgb(0,0,0); fill-rule: nonzero; opacity: 1;" vector-effect="non-scaling-stroke"  transform=" translate(0, 0)" d="M 20 0 L 40 40 L 0 40 L -40 40 L -20 0 L 0 -40 z" stroke-linecap="round" />
</g>
<g transform="matrix(0 0.07 -0.14 0 782.79 742.25)" id="aI6xZJzHPlKCm5Nt3-i-h"  >
<path style="stroke: none; stroke-width: 1; stroke-dasharray: none; stroke-linecap: butt; stroke-dashoffset: 0; stroke-linejoin: miter; stroke-miterlimit: 4; fill: rgb(0,0,0); fill-rule: nonzero; opacity: 1;" vector-effect="non-scaling-stroke"  transform=" translate(0, 0)" d="M 20 0 L 40 40 L 0 40 L -40 40 L -20 0 L 0 -40 z" stroke-linecap="round" />
</g>
<g transform="matrix(1 0 0 1 818.03 679.43)" id="ShA_3h-8f8eL67Z3pciAn"  >
<path style="stroke: rgb(0,0,0); stroke-width: 1; stroke-dasharray: none; stroke-linecap: butt; stroke-dashoffset: 0; stroke-linejoin: miter; stroke-miterlimit: 4; fill: rgb(255,255,255); fill-opacity: 0; fill-rule: nonzero; opacity: 1;" vector-effect="non-scaling-stroke"  transform=" translate(0, 0)" d="M -28.63967 0 L 28.63967 0" stroke-linecap="round" />
</g>
<g transform="matrix(2.94 0 0 2.94 762.4 417.36)" id="l2YsnYTGojmtFUR41YZft"  >
<path style="stroke: rgb(0,0,0); stroke-width: 1; stroke-dasharray: none; stroke-linecap: butt; stroke-dashoffset: 0; stroke-linejoin: miter; stroke-miterlimit: 4; fill: rgb(255,255,255); fill-opacity: 0; fill-rule: nonzero; opacity: 1;" vector-effect="non-scaling-stroke"  transform=" translate(0, 0)" d="M -28.63967 0 L 28.63967 0" stroke-linecap="round" />
</g>
<g transform="matrix(-0.07 0 0 -0.14 829.56 674.43)" id="9zguCKXItNkNIYQiC4Lik"  >
<path style="stroke: none; stroke-width: 1; stroke-dasharray: none; stroke-linecap: butt; stroke-dashoffset: 0; stroke-linejoin: miter; stroke-miterlimit: 4; fill: rgb(0,0,0); fill-rule: nonzero; opacity: 1;" vector-effect="non-scaling-stroke"  transform=" translate(0, 0)" d="M 20 0 L 40 40 L 0 40 L -40 40 L -20 0 L 0 -40 z" stroke-linecap="round" />
</g>
<g transform="matrix(0.07 0 0 0.14 829.56 423.46)" id="Pg_9EcZs9Yz2XsIP8r9xL"  >
<path style="stroke: none; stroke-width: 1; stroke-dasharray: none; stroke-linecap: butt; stroke-dashoffset: 0; stroke-linejoin: miter; stroke-miterlimit: 4; fill: rgb(0,0,0); fill-rule: nonzero; opacity: 1;" vector-effect="non-scaling-stroke"  transform=" translate(0, 0)" d="M 20 0 L 40 40 L 0 40 L -40 40 L -20 0 L 0 -40 z" stroke-linecap="round" />
</g>
<g transform="matrix(0 0 0 0.99 829.56 547.89)" id="pOIK1_EvKhuUSdwLcVOIk"  >
<path style="stroke: rgb(0,0,0); stroke-width: 1; stroke-dasharray: none; stroke-linecap: butt; stroke-dashoffset: 0; stroke-linejoin: miter; stroke-miterlimit: 4; fill: rgb(255,255,255); fill-opacity: 0; fill-rule: nonzero; opacity: 1;" vector-effect="non-scaling-stroke"  transform=" translate(0, 0)" d="M 0 -131.83409 L 0 131.83409999999998" stroke-linecap="round" />
</g>
<g transform="matrix(1 0 0 1 80.17 57.1)" id="Y4ZGSgLcmOSfw7iH-VvBZ"  >
<path style="stroke: rgb(0,0,0); stroke-width: 1; stroke-dasharray: none; stroke-linecap: butt; stroke-dashoffset: 0; stroke-linejoin: miter; stroke-miterlimit: 4; fill: rgb(255,255,255); fill-opacity: 0; fill-rule: nonzero; opacity: 1;" vector-effect="non-scaling-stroke"  transform=" translate(0, 0)" d="M 31.35834 0 L -31.35834 0" stroke-linecap="round" />
</g>
<g transform="matrix(1 0 0 1 80.17 347.46)" id="wLo5HFwcQLr3nOjQYsdkd"  >
<path style="stroke: rgb(0,0,0); stroke-width: 1; stroke-dasharray: none; stroke-linecap: butt; stroke-dashoffset: 0; stroke-linejoin: miter; stroke-miterlimit: 4; fill: rgb(255,255,255); fill-opacity: 0; fill-rule: nonzero; opacity: 1;" vector-effect="non-scaling-stroke"  transform=" translate(0, 0)" d="M 31.85834 0 L -31.85834 0" stroke-linecap="round" />
</g>
<g transform="matrix(1 0 0 1 51.99 202.53)" id="MnvuisGkZocTu8RN7NvTh"  >
<path style="stroke: rgb(0,0,0); stroke-width: 1; stroke-dasharray: none; stroke-linecap: butt; stroke-dashoffset: 0; stroke-linejoin: miter; stroke-miterlimit: 4; fill: rgb(255,255,255); fill-opacity: 0; fill-rule: nonzero; opacity: 1;" vector-effect="non-scaling-stroke"  transform=" translate(0, 0)" d="M 0 -144.92885 L 0 144.92885" stroke-linecap="round" />
</g>
<g transform="matrix(0 0 0 0.23 646.14 694.65)" id="iGNvjwEa0xpgPiOekEAh1"  >
<path style="stroke: rgb(0,0,0); stroke-width: 1; stroke-dasharray: none; stroke-linecap: butt; stroke-dashoffset: 0; stroke-linejoin: miter; stroke-miterlimit: 4; fill: rgb(255,255,255); fill-opacity: 0; fill-rule: nonzero; opacity: 1;" vector-effect="non-scaling-stroke"  transform=" translate(0, 0)" d="M 0 -63.53187 L 0 63.53187" stroke-linecap="round" />
</g>
<g transform="matrix(0 0 0 0.23 217.7 696.14)" id="HFOL2vGEmQ_XuG_pVxU5z"  >
<path style="stroke: rgb(0,0,0); stroke-width: 1; stroke-dasharray: none; stroke-linecap: butt; stroke-dashoffset: 0; stroke-linejoin: miter; stroke-miterlimit: 4; fill: rgb(255,255,255); fill-opacity: 0; fill-rule: nonzero; opacity: 1;" vector-effect="non-scaling-stroke"  transform=" translate(0, 0)" d="M 0 -63.53187 L 0 63.53187" stroke-linecap="round" />
</g>
<g transform="matrix(1 0 0 1 432.17 705.36)" id="zWE9d-mbMonMb1CjERVIk"  >
<path style="stroke: rgb(0,0,0); stroke-width: 1; stroke-dasharray: none; stroke-linecap: butt; stroke-dashoffset: 0; stroke-linejoin: miter; stroke-miterlimit: 4; fill: rgb(255,255,255); fill-opacity: 0; fill-rule: nonzero; opacity: 1;" vector-effect="non-scaling-stroke"  transform=" translate(0, 0)" d="M -213.96641 0 L 213.96641 0" stroke-linecap="round" />
</g>
<g transform="matrix(0 0 0 0.23 921.28 694.14)" id="2frSOG0ll-7EyvhVZZN05"  >
<path style="stroke: rgb(0,0,0); stroke-width: 1; stroke-dasharray: none; stroke-linecap: butt; stroke-dashoffset: 0; stroke-linejoin: miter; stroke-miterlimit: 4; fill: rgb(255,255,255); fill-opacity: 0; fill-rule: nonzero; opacity: 1;" vector-effect="non-scaling-stroke"  transform=" translate(0, 0)" d="M 0 -63.53187 L 0 63.53187" stroke-linecap="round" />
</g>
<g transform="matrix(0 0 0 0.23 1174.74 694.76)" id="37DcvmGFxk9ZtnsbUpbSA"  >
<path style="stroke: rgb(0,0,0); stroke-width: 1; stroke-dasharray: none; stroke-linecap: butt; stroke-dashoffset: 0; stroke-linejoin: miter; stroke-miterlimit: 4; fill: rgb(255,255,255); fill-opacity: 0; fill-rule: nonzero; opacity: 1;" vector-effect="non-scaling-stroke"  transform=" translate(0, 0)" d="M 0 -63.53187 L 0 63.53187" stroke-linecap="round" />
</g>
<g transform="matrix(0 0 0 0.23 921.28 338.49)" id="GgV21jB0sCEEpcPRILjXB"  >
<path style="stroke: rgb(0,0,0); stroke-width: 1; stroke-dasharray: none; stroke-linecap: butt; stroke-dashoffset: 0; stroke-linejoin: miter; stroke-miterlimit: 4; fill: rgb(255,255,255); fill-opacity: 0; fill-rule: nonzero; opacity: 1;" vector-effect="non-scaling-stroke"  transform=" translate(0, 0)" d="M 0 -63.53187 L 0 63.53187" stroke-linecap="round" />
</g>
<g transform="matrix(0 0 0 0.23 1175.24 339.11)" id="T1xoW2hKBoMBq8ez_kO3a"  >
<path style="stroke: rgb(0,0,0); stroke-width: 1; stroke-dasharray: none; stroke-linecap: butt; stroke-dashoffset: 0; stroke-linejoin: miter; stroke-miterlimit: 4; fill: rgb(255,255,255); fill-opacity: 0; fill-rule: nonzero; opacity: 1;" vector-effect="non-scaling-stroke"  transform=" translate(0, 0)" d="M 0 -63.53187 L 0 63.53187" stroke-linecap="round" />
</g>
<g transform="matrix(0.99 0 0 0.99 1047.86 705.36)" id="ZJiI9_Rh35k4dsl9p8PQg"  >
<path style="stroke: rgb(0,0,0); stroke-width: 1; stroke-dasharray: none; stroke-linecap: butt; stroke-dashoffset: 0; stroke-linejoin: miter; stroke-miterlimit: 4; fill: rgb(255,255,255); fill-opacity: 0; fill-rule: nonzero; opacity: 1;" vector-effect="non-scaling-stroke"  transform=" translate(0, 0)" d="M -126.98138 0 L 126.98138 0" stroke-linecap="round" />
</g>
<g transform="matrix(1 0 0 1 51.49 202.37)" id="WoInuhSlt1W-YiIM4IUkQ"  >
<path style="stroke: rgb(0,0,0); stroke-width: 1; stroke-dasharray: none; stroke-linecap: butt; stroke-dashoffset: 0; stroke-linejoin: miter; stroke-miterlimit: 4; fill: rgb(255,255,255); fill-opacity: 0; fill-rule: nonzero; opacity: 1;" vector-effect="non-scaling-stroke"  transform=" translate(0, 0)" d="M 0 -144.42885 L 0 144.42885" stroke-linecap="round" />
</g>
<g transform="matrix(0 0.07 0.14 0 223.8 705.36)" id="2upbVuD2ZroMtDvlsQ2nE"  >
<path style="stroke: none; stroke-width: 1; stroke-dasharray: none; stroke-linecap: butt; stroke-dashoffset: 0; stroke-linejoin: miter; stroke-miterlimit: 4; fill: rgb(0,0,0); fill-rule: nonzero; opacity: 1;" vector-effect="non-scaling-stroke"  transform=" translate(0, 0)" d="M 20 0 L 40 40 L 0 40 L -40 40 L -20 0 L 0 -40 z" stroke-linecap="round" />
</g>
<g transform="matrix(0 0.07 -0.14 0 640.04 705.36)" id="JYxWXpBfXSMGpqX5-4dv8"  >
<path style="stroke: none; stroke-width: 1; stroke-dasharray: none; stroke-linecap: butt; stroke-dashoffset: 0; stroke-linejoin: miter; stroke-miterlimit: 4; fill: rgb(0,0,0); fill-rule: nonzero; opacity: 1;" vector-effect="non-scaling-stroke"  transform=" translate(0, 0)" d="M 20 0 L 40 40 L 0 40 L -40 40 L -20 0 L 0 -40 z" stroke-linecap="round" />
</g>
<g transform="matrix(0 0.07 -0.14 0 1168.54 705.36)" id="bHJW3XRA5GnOfE8PyV-4O"  >
<path style="stroke: none; stroke-width: 1; stroke-dasharray: none; stroke-linecap: butt; stroke-dashoffset: 0; stroke-linejoin: miter; stroke-miterlimit: 4; fill: rgb(0,0,0); fill-rule: nonzero; opacity: 1;" vector-effect="non-scaling-stroke"  transform=" translate(0, 0)" d="M 20 0 L 40 40 L 0 40 L -40 40 L -20 0 L 0 -40 z" stroke-linecap="round" />
</g>
<g transform="matrix(0 0.07 0.14 0 927.19 705.36)" id="Id2pYgrh5sEDDtE9bTkKo"  >
<path style="stroke: none; stroke-width: 1; stroke-dasharray: none; stroke-linecap: butt; stroke-dashoffset: 0; stroke-linejoin: miter; stroke-miterlimit: 4; fill: rgb(0,0,0); fill-rule: nonzero; opacity: 1;" vector-effect="non-scaling-stroke"  transform=" translate(0, 0)" d="M 20 0 L 40 40 L 0 40 L -40 40 L -20 0 L 0 -40 z" stroke-linecap="round" />
</g>
<g transform="matrix(0 0.07 -0.14 0 1169.14 347.46)" id="dK9zUNqa0okZjGU46a2nl"  >
<path style="stroke: none; stroke-width: 1; stroke-dasharray: none; stroke-linecap: butt; stroke-dashoffset: 0; stroke-linejoin: miter; stroke-miterlimit: 4; fill: rgb(0,0,0); fill-rule: nonzero; opacity: 1;" vector-effect="non-scaling-stroke"  transform=" translate(0, 0)" d="M 20 0 L 40 40 L 0 40 L -40 40 L -20 0 L 0 -40 z" stroke-linecap="round" />
</g>
<g transform="matrix(0 0.07 0.14 0 927.38 347.46)" id="n-gVDXa3q_nimzeynTVsc"  >
<path style="stroke: none; stroke-width: 1; stroke-dasharray: none; stroke-linecap: butt; stroke-dashoffset: 0; stroke-linejoin: miter; stroke-miterlimit: 4; fill: rgb(0,0,0); fill-rule: nonzero; opacity: 1;" vector-effect="non-scaling-stroke"  transform=" translate(0, 0)" d="M 20 0 L 40 40 L 0 40 L -40 40 L -20 0 L 0 -40 z" stroke-linecap="round" />
</g>
<g transform="matrix(1 0 0 1 147.26 641)" id="vw_ZuvM-tKq6C8ZqbkAp-"  >
<path style="stroke: rgb(0,0,0); stroke-width: 1; stroke-dasharray: none; stroke-linecap: butt; stroke-dashoffset: 0; stroke-linejoin: miter; stroke-miterlimit: 4; fill: rgb(255,255,255); fill-opacity: 0; fill-rule: nonzero; opacity: 1;" vector-effect="non-scaling-stroke"  transform=" translate(0, 0)" d="M 15.08183 0 L -15.08182 0" stroke-linecap="round" />
</g>
<g transform="matrix(1 0 0 1 135.31 661.01)" id="BhGpKvhJlvzxllR8nuMz6"  >
<path style="stroke: rgb(0,0,0); stroke-width: 1; stroke-dasharray: none; stroke-linecap: butt; stroke-dashoffset: 0; stroke-linejoin: miter; stroke-miterlimit: 4; fill: rgb(255,255,255); fill-opacity: 0; fill-rule: nonzero; opacity: 1;" vector-effect="non-scaling-stroke"  transform=" translate(0, 0)" d="M 0 -19.51378 L 0 19.51378" stroke-linecap="round" />
</g>
<g transform="matrix(0.07 0 0 0.14 135.31 647.1)" id="2lWc4arDGeKaFPjIko4AI"  >
<path style="stroke: none; stroke-width: 1; stroke-dasharray: none; stroke-linecap: butt; stroke-dashoffset: 0; stroke-linejoin: miter; stroke-miterlimit: 4; fill: rgb(0,0,0); fill-rule: nonzero; opacity: 1;" vector-effect="non-scaling-stroke"  transform=" translate(0, 0)" d="M 20 0 L 40 40 L 0 40 L -40 40 L -20 0 L 0 -40 z" stroke-linecap="round" />
</g>
<g transform="matrix(-0.07 0 0 -0.14 135.31 674.55)" id="m0EyHuPy1vkhUfc0InqDa"  >
<path style="stroke: none; stroke-width: 1; stroke-dasharray: none; stroke-linecap: butt; stroke-dashoffset: 0; stroke-linejoin: miter; stroke-miterlimit: 4; fill: rgb(0,0,0); fill-rule: nonzero; opacity: 1;" vector-effect="non-scaling-stroke"  transform=" translate(0, 0)" d="M 20 0 L 40 40 L 0 40 L -40 40 L -20 0 L 0 -40 z" stroke-linecap="round" />
</g>
<g transform="matrix(1.09 0 0 1.32 1049.26 109.02)" id="1XyqQ8uFTXSOwES1bXjqh"  >
<path style="stroke: rgb(0,0,0); stroke-width: 2; stroke-dasharray: none; stroke-linecap: butt; stroke-dashoffset: 0; stroke-linejoin: miter; stroke-miterlimit: 4; fill: rgb(255,255,255); fill-opacity: 0; fill-rule: nonzero; opacity: 1;" vector-effect="non-scaling-stroke"  transform=" translate(0, 0)" d="M -89.80498 -23.81533 L 21.206519999999998 -23.81533 L 87.1295 -23.81533 L 108.58743 23.81533 L -108.58745 23.81533 z" stroke-linecap="round" />
</g>
<g transform="matrix(-0.07 0 0 -0.14 51.61 341.36)" id="axzS8_LyRfGi02eI8HkHT"  >
<path style="stroke: none; stroke-width: 1; stroke-dasharray: none; stroke-linecap: butt; stroke-dashoffset: 0; stroke-linejoin: miter; stroke-miterlimit: 4; fill: rgb(0,0,0); fill-rule: nonzero; opacity: 1;" vector-effect="non-scaling-stroke"  transform=" translate(0, 0)" d="M 20 0 L 40 40 L 0 40 L -40 40 L -20 0 L 0 -40 z" stroke-linecap="round" />
</g>
<g transform="matrix(0.07 0 0 0.14 51.61 63.37)" id="tXOy_nUg1tJVZ-qGTGHTg"  >
<path style="stroke: none; stroke-width: 1; stroke-dasharray: none; stroke-linecap: butt; stroke-dashoffset: 0; stroke-linejoin: miter; stroke-miterlimit: 4; fill: rgb(0,0,0); fill-rule: nonzero; opacity: 1;" vector-effect="non-scaling-stroke"  transform=" translate(0, 0)" d="M 20 0 L 40 40 L 0 40 L -40 40 L -20 0 L 0 -40 z" stroke-linecap="round" />
</g>
<g transform="matrix(1 0 0 1 906.36 508.6)" id="MQ63tlwrzwub4N0vaUhC7"  >
<path style="stroke: rgb(0,0,0); stroke-width: 2; stroke-dasharray: none; stroke-linecap: butt; stroke-dashoffset: 0; stroke-linejoin: miter; stroke-miterlimit: 4; fill: rgb(255,255,255); fill-rule: nonzero; opacity: 1;" vector-effect="non-scaling-stroke"  transform=" translate(0, 0)" d="M -5.47434 -7.63751 L 1.0076200000000002 7.6375 L 5.47434 -2.1832199999999995 L 2.34726 -7.637519999999999 z" stroke-linecap="round" />
</g>
<g transform="matrix(1 0 0 1 904.58 153.08)" id="IIeqrSCZVvh75TPrN4V-r"  >
<path style="stroke: rgb(0,0,0); stroke-width: 2; stroke-dasharray: none; stroke-linecap: butt; stroke-dashoffset: 0; stroke-linejoin: miter; stroke-miterlimit: 4; fill: rgb(255,255,255); fill-rule: nonzero; opacity: 1;" vector-effect="non-scaling-stroke"  transform=" translate(0, 0)" d="M -5.47434 -7.63751 L 1.0076200000000002 7.6375 L 5.47434 -2.1832199999999995 L 2.34726 -7.637519999999999 z" stroke-linecap="round" />
</g>
<g transform="matrix(-1 0 0 1 1191.91 153.08)" id="2bxHZBoAIK-pZTtzsuMBZ"  >
<path style="stroke: rgb(0,0,0); stroke-width: 2; stroke-dasharray: none; stroke-linecap: butt; stroke-dashoffset: 0; stroke-linejoin: miter; stroke-miterlimit: 4; fill: rgb(255,255,255); fill-rule: nonzero; opacity: 1;" vector-effect="non-scaling-stroke"  transform=" translate(0, 0)" d="M -5.47434 -7.63751 L 1.0076200000000002 7.6375 L 5.47434 -2.1832199999999995 L 2.34726 -7.637519999999999 z" stroke-linecap="round" />
</g>
<g transform="matrix(-1 0 0 1 1189.5 509.83)" id="ro2c6T2ql8LEC9-hP4-QD"  >
<path style="stroke: rgb(0,0,0); stroke-width: 2; stroke-dasharray: none; stroke-linecap: butt; stroke-dashoffset: 0; stroke-linejoin: miter; stroke-miterlimit: 4; fill: rgb(255,255,255); fill-rule: nonzero; opacity: 1;" vector-effect="non-scaling-stroke"  transform=" translate(0, 0)" d="M -5.47434 -7.63751 L 1.0076200000000002 7.6375 L 5.47434 -2.1832199999999995 L 2.34726 -7.637519999999999 z" stroke-linecap="round" />
</g>
</svg>